<?xml version="1.0" encoding="UTF-8"?>
<svg xmlns="http://www.w3.org/2000/svg" width="64" height="64" viewBox="0 0 64 64" role="img" aria-label="Apricot speech bubble">
  <path fill="#EDB489" d="M 10.49,15.07 C 8.20,17.20 5.92,20.56 5.00,23.31 C 4.08,26.05 4.54,29.25 5.00,31.54 C 5.46,33.83 6.53,35.36 7.75,37.03 C 8.97,38.71 10.49,40.24 12.32,41.61 C 14.15,42.98 16.59,44.36 18.73,45.27 C 20.86,46.19 22.39,46.64 25.14,47.10 C 27.88,47.56 32.76,47.56 35.20,48.02 C 37.64,48.47 38.25,48.93 39.78,49.85 C 41.31,50.76 42.98,52.75 44.36,53.51 C 45.73,54.27 47.71,55.03 48.02,54.42 C 48.32,53.81 46.49,51.22 46.19,49.85 C 45.88,48.47 44.66,48.17 46.19,46.19 C 47.71,44.20 53.36,40.24 55.34,37.95 C 57.32,35.66 57.63,34.90 58.08,32.46 C 58.54,30.02 58.85,26.05 58.08,23.31 C 57.32,20.56 54.73,17.66 53.51,15.98 C 52.29,14.31 52.14,14.15 50.76,13.24 C 49.39,12.32 47.41,11.25 45.27,10.49 C 43.14,9.73 41.15,8.97 37.95,8.66 C 34.75,8.36 29.25,8.36 26.05,8.66 C 22.85,8.97 21.32,9.42 18.73,10.49 C 16.14,11.56 12.78,12.93 10.49,15.07 Z"/>
</svg>
